<mxfile modified="2023-02-21T16:45:12.729Z" host="app.diagrams.net" agent="5.0 (Windows NT 10.0; Win64; x64) AppleWebKit/537.36 (KHTML, like Gecko) Chrome/110.0.0.0 Safari/537.36" etag="UAAfhXbU4KMXqqA4kac0" version="20.8.21" type="github">
  <diagram id="Ht1M8jgEwFfnCIfOTk4-" name="Page-1">
    <mxGraphModel dx="1035" dy="1359" grid="1" gridSize="10" guides="1" tooltips="1" connect="1" arrows="1" fold="1" page="1" pageScale="1" pageWidth="1169" pageHeight="827" math="0" shadow="0">
      <root>
        <mxCell id="0" />
        <mxCell id="1" parent="0" />
        <mxCell id="UEzPUAAOIrF-is8g5C7q-175" value="AWS Cloud" style="points=[[0,0],[0.25,0],[0.5,0],[0.75,0],[1,0],[1,0.25],[1,0.5],[1,0.75],[1,1],[0.75,1],[0.5,1],[0.25,1],[0,1],[0,0.75],[0,0.5],[0,0.25]];outlineConnect=0;gradientColor=none;html=1;whiteSpace=wrap;fontSize=19;fontStyle=0;shape=mxgraph.aws4.group;grIcon=mxgraph.aws4.group_aws_cloud_alt;strokeColor=#232F3E;fillColor=none;verticalAlign=top;align=left;spacingLeft=30;fontColor=#232F3E;dashed=0;labelBackgroundColor=#ffffff;container=1;pointerEvents=0;collapsible=0;recursiveResize=0;" parent="1" vertex="1">
          <mxGeometry x="10" y="-720" width="770" height="640" as="geometry" />
        </mxCell>
        <mxCell id="NMRSi0StNrNSCQlEDRtV-6" value="" style="group;fontSize=18;" vertex="1" connectable="0" parent="UEzPUAAOIrF-is8g5C7q-175">
          <mxGeometry x="10" y="329" width="153" height="131" as="geometry" />
        </mxCell>
        <mxCell id="NMRSi0StNrNSCQlEDRtV-1" value="" style="outlineConnect=0;dashed=0;verticalLabelPosition=bottom;verticalAlign=top;align=center;html=1;shape=mxgraph.aws3.rds;fillColor=#2E73B8;gradientColor=none;movable=1;resizable=1;rotatable=1;deletable=1;editable=1;locked=0;connectable=1;fontSize=13;" vertex="1" parent="NMRSi0StNrNSCQlEDRtV-6">
          <mxGeometry x="6" y="-70" width="134" height="151" as="geometry" />
        </mxCell>
        <mxCell id="NMRSi0StNrNSCQlEDRtV-2" value="Amazon RDS &lt;br style=&quot;font-size: 18px;&quot;&gt;hosting Postgres" style="text;html=1;align=center;verticalAlign=middle;resizable=1;points=[];autosize=1;strokeColor=none;fillColor=none;movable=1;rotatable=1;deletable=1;editable=1;locked=0;connectable=1;fontSize=18;" vertex="1" parent="NMRSi0StNrNSCQlEDRtV-6">
          <mxGeometry x="-7" y="71" width="160" height="60" as="geometry" />
        </mxCell>
        <mxCell id="NMRSi0StNrNSCQlEDRtV-23" style="edgeStyle=none;rounded=0;orthogonalLoop=1;jettySize=auto;html=1;exitX=0;exitY=0.5;exitDx=0;exitDy=0;exitPerimeter=0;entryX=0.056;entryY=0.383;entryDx=0;entryDy=0;entryPerimeter=0;" edge="1" parent="NMRSi0StNrNSCQlEDRtV-6" source="NMRSi0StNrNSCQlEDRtV-1" target="NMRSi0StNrNSCQlEDRtV-1">
          <mxGeometry relative="1" as="geometry" />
        </mxCell>
        <mxCell id="NMRSi0StNrNSCQlEDRtV-11" value="Saves Data" style="edgeStyle=orthogonalEdgeStyle;rounded=0;orthogonalLoop=1;jettySize=auto;html=1;entryX=1;entryY=0.5;entryDx=0;entryDy=0;entryPerimeter=0;fontSize=14;" edge="1" parent="UEzPUAAOIrF-is8g5C7q-175" source="UEzPUAAOIrF-is8g5C7q-178" target="NMRSi0StNrNSCQlEDRtV-1">
          <mxGeometry relative="1" as="geometry">
            <mxPoint x="141" y="188" as="targetPoint" />
          </mxGeometry>
        </mxCell>
        <mxCell id="UEzPUAAOIrF-is8g5C7q-178" value="Udagram API&lt;br style=&quot;font-size: 18px;&quot;&gt;on Elastic&amp;nbsp;&lt;br style=&quot;font-size: 18px;&quot;&gt;Beanstalk" style="outlineConnect=0;fontColor=#232F3E;gradientColor=none;gradientDirection=north;fillColor=#D45B07;strokeColor=none;dashed=0;verticalLabelPosition=bottom;verticalAlign=top;align=center;html=1;fontSize=18;fontStyle=0;aspect=fixed;shape=mxgraph.aws4.application;resIcon=mxgraph.aws4.codepipeline;labelBackgroundColor=#ffffff;sketch=0;" parent="UEzPUAAOIrF-is8g5C7q-175" vertex="1">
          <mxGeometry x="280" y="260" width="147.5" height="147.5" as="geometry" />
        </mxCell>
        <mxCell id="NMRSi0StNrNSCQlEDRtV-12" value="Fetches Data" style="edgeStyle=orthogonalEdgeStyle;rounded=0;orthogonalLoop=1;jettySize=auto;html=1;fontSize=14;" edge="1" parent="UEzPUAAOIrF-is8g5C7q-175" source="UEzPUAAOIrF-is8g5C7q-179" target="UEzPUAAOIrF-is8g5C7q-178">
          <mxGeometry relative="1" as="geometry" />
        </mxCell>
        <mxCell id="NMRSi0StNrNSCQlEDRtV-22" value="Authentication" style="edgeStyle=none;rounded=0;orthogonalLoop=1;jettySize=auto;html=1;fontSize=20;" edge="1" parent="UEzPUAAOIrF-is8g5C7q-175">
          <mxGeometry x="-0.0469" relative="1" as="geometry">
            <mxPoint x="405.25" y="100" as="targetPoint" />
            <mxPoint x="607.3858520900319" y="267" as="sourcePoint" />
            <Array as="points">
              <mxPoint x="610" y="100" />
            </Array>
            <mxPoint as="offset" />
          </mxGeometry>
        </mxCell>
        <mxCell id="UEzPUAAOIrF-is8g5C7q-179" value="Angular hosted&lt;br style=&quot;font-size: 18px;&quot;&gt;on S3" style="outlineConnect=0;fontColor=default;gradientColor=#F54749;gradientDirection=north;fillColor=#DF8C42;strokeColor=none;dashed=0;verticalLabelPosition=bottom;verticalAlign=top;align=center;html=1;fontSize=18;fontStyle=0;aspect=fixed;shape=mxgraph.veeam2.aws_s3;resIcon=mxgraph.aws4.organizations;labelBackgroundColor=#ffffff;sketch=0;shadow=0;" parent="UEzPUAAOIrF-is8g5C7q-175" vertex="1">
          <mxGeometry x="549" y="267" width="137" height="137" as="geometry" />
        </mxCell>
        <mxCell id="NMRSi0StNrNSCQlEDRtV-16" value="Amazon Cognito" style="outlineConnect=0;dashed=0;verticalLabelPosition=bottom;verticalAlign=top;align=center;html=1;shape=mxgraph.aws3.cognito;fillColor=#AD688B;gradientColor=none;fontSize=18;" vertex="1" parent="UEzPUAAOIrF-is8g5C7q-175">
          <mxGeometry x="260" y="30" width="143.25" height="140" as="geometry" />
        </mxCell>
        <mxCell id="UEzPUAAOIrF-is8g5C7q-180" value="End user" style="outlineConnect=0;fontColor=default;gradientColor=#F34482;gradientDirection=north;fillColor=#00188D;strokeColor=none;dashed=0;verticalLabelPosition=bottom;verticalAlign=top;align=center;html=1;fontSize=18;fontStyle=0;aspect=fixed;shape=mxgraph.azure.computer;resIcon=mxgraph.aws4.cloudwatch;labelBackgroundColor=#ffffff;sketch=0;shadow=0;" parent="1" vertex="1">
          <mxGeometry x="900" y="-460" width="147" height="147" as="geometry" />
        </mxCell>
        <mxCell id="NMRSi0StNrNSCQlEDRtV-13" value="User goes on Site" style="edgeStyle=orthogonalEdgeStyle;rounded=0;orthogonalLoop=1;jettySize=auto;html=1;fontSize=14;" edge="1" parent="1" source="UEzPUAAOIrF-is8g5C7q-180" target="UEzPUAAOIrF-is8g5C7q-179">
          <mxGeometry relative="1" as="geometry">
            <mxPoint x="590" y="-371" as="targetPoint" />
          </mxGeometry>
        </mxCell>
      </root>
    </mxGraphModel>
  </diagram>
</mxfile>
